<svg height="512pt" viewBox="0 0 512 512" width="512pt" xmlns="http://www.w3.org/2000/svg"><path d="m256 512c-141.160156 0-256-114.839844-256-256s114.839844-256 256-256 256 114.839844 256 256-114.839844 256-256 256zm0-475.429688c-120.992188 0-219.429688 98.4375-219.429688 219.429688s98.4375 219.429688 219.429688 219.429688 219.429688-98.4375 219.429688-219.429688-98.4375-219.429688-219.429688-219.429688zm0 0"/><path d="m256 365.714844c-10.097656 0-18.285156-8.1875-18.285156-18.285156v-182.859376c0-10.097656 8.1875-18.285156 18.285156-18.285156s18.285156 8.1875 18.285156 18.285156v182.859376c0 10.097656-8.1875 18.285156-18.285156 18.285156zm0 0"/><path d="m347.429688 274.285156h-182.859376c-10.097656 0-18.285156-8.1875-18.285156-18.285156s8.1875-18.285156 18.285156-18.285156h182.859376c10.097656 0 18.285156 8.1875 18.285156 18.285156s-8.1875 18.285156-18.285156 18.285156zm0 0"/></svg>