<svg xmlns="http://www.w3.org/2000/svg" width="16" height="16" viewBox="0 0 16 16">
  <path fill-rule="evenodd" d="M13.932 8A5.928 5.928 0 1 0 2.076 8a5.928 5.928 0 0 0 7.523 5.705c.249-.07.435-.169.696-.249.519-.161 1.167.121 1.298.649.15.602-.147 1.116-.647 1.331-.24.102-.544.198-.661.232A8.004 8.004 0 0 1 0 8c0-4.415 3.585-8 8-8s8 3.585 8 8l-.001.098a7.984 7.984 0 0 1-.232 1.815l-.004.014c-.573 1.929-1.852 2.758-3.326 2.758-.948-.007-1.823-.495-2.273-1.313a3.794 3.794 0 0 1-2.312.787c-2.162 0-3.917-1.828-3.917-4.079C3.935 5.828 5.69 4 7.852 4c.832 0 1.605.271 2.24.733a.884.884 0 0 1 1.677.392v4.414c0 .501.244.993.861.993.542 0 .951-.524 1.191-1.387.067-.34.104-.687.11-1.045l.001-.1zM7.905 6.041c1.115 0 2.021.916 2.021 2.044 0 1.129-.906 2.045-2.021 2.045a2.034 2.034 0 0 1-2.022-2.045c0-1.128.906-2.044 2.022-2.044z"/>
</svg>
