<svg xmlns="http://www.w3.org/2000/svg" width="16" height="16" viewBox="0 0 16 16">
  <path fill-rule="evenodd" d="M5.306 5.692c-.692 0-1.259-.577-1.259-1.346 0-.77.567-1.346 1.26-1.346.692 0 1.258.641 1.258 1.346 0 .77-.566 1.346-1.259 1.346zm5.414 0c-.693 0-1.26-.577-1.26-1.346 0-.77.567-1.346 1.26-1.346.692 0 1.259.641 1.259 1.346 0 .77-.567 1.346-1.26 1.346zm4.154 5.513c.252.385.126.898-.378 1.09-.125.064-.251.128-.377.128a.69.69 0 0 1-.63-.385l-.63-1.09C11.539 12.296 9.776 13 7.888 13s-3.65-.77-4.973-2.051l-.566 1.09a.69.69 0 0 1-.63.384c-.126 0-.252-.064-.377-.128-.315-.192-.441-.705-.252-1.09l1.573-2.82c.252-.32.693-.45 1.07-.257.315.193.441.705.252 1.09l-.189.32c1.133 1.154 2.644 1.86 4.218 1.86 1.574 0 3.084-.642 4.154-1.86l-.188-.32c-.252-.385-.126-.897.251-1.09.378-.256.882-.128 1.07.257l1.574 2.82z"/>
</svg>
