<?xml version="1.0" encoding="UTF-8"?>
<svg enable-background="new 0 0 512 512" version="1.1" viewBox="0 0 512 512" xml:space="preserve" xmlns="http://www.w3.org/2000/svg">

	
		<path d="m256 0c-74.439 0-135 60.561-135 135s60.561 135 135 135 135-60.561 135-135-60.561-135-135-135zm0 240c-57.897 0-105-47.103-105-105s47.103-105 105-105 105 47.103 105 105-47.103 105-105 105z"/>
	


	
		<path d="m423.97 358.2c-36.96-37.528-85.957-58.195-137.97-58.195h-60c-52.008 0-101.01 20.667-137.97 58.195-36.779 37.344-57.034 86.638-57.034 138.8 0 8.284 6.716 15 15 15h420c8.284 0 15-6.716 15-15 0-52.167-20.255-101.46-57.034-138.8zm-362.31 123.8c7.515-85.086 78.351-152 164.34-152h60c85.989 0 156.82 66.914 164.34 152h-388.68z"/>
	
















</svg>
