<svg xmlns="http://www.w3.org/2000/svg" width="16" height="16" viewBox="0 0 16 16">
  <path fill-rule="evenodd" d="M15.623 3.901c.119-.373 0-.644-.525-.644h-1.745c-.441 0-.644.238-.763.492 0 0-.898 2.169-2.152 3.575-.406.407-.593.542-.813.542-.119 0-.271-.135-.271-.508V3.884c0-.44-.136-.644-.509-.644H6.1c-.271 0-.44.204-.44.407 0 .424.627.525.694 1.712v2.575c0 .559-.101.661-.322.661-.593 0-2.033-2.186-2.897-4.677-.17-.491-.339-.678-.78-.678H.593c-.508 0-.593.238-.593.492 0 .457.593 2.762 2.762 5.812 1.44 2.084 3.491 3.203 5.338 3.203 1.118 0 1.254-.255 1.254-.678v-1.576c0-.508.101-.593.457-.593.254 0 .712.135 1.746 1.135 1.186 1.186 1.389 1.729 2.05 1.729h1.745c.509 0 .746-.255.61-.746-.152-.491-.728-1.203-1.474-2.05-.407-.475-1.017-1-1.203-1.254-.254-.339-.186-.475 0-.78-.017 0 2.118-3.016 2.338-4.033"/>
</svg>
